<svg xmlns="http://www.w3.org/2000/svg" viewBox="0 0 356.98 300"><defs><style>.cls-1{fill:#0076aa;}.cls-2{fill:#00bebb;}.cls-3{fill:#a5e138;}.cls-4{fill:#bfee14;}.cls-5{fill:#cdff00;opacity:0.5;}.cls-6{fill:#fff;}</style></defs><g id="Capa_2" data-name="Capa 2"><g id="Layer_1" data-name="Layer 1"><ellipse class="cls-1" cx="178.82" cy="150" rx="176.49" ry="132.92" transform="translate(-54.21 136.91) rotate(-36.78)"/><ellipse class="cls-2" cx="176.67" cy="149.19" rx="180.58" ry="135.83" transform="translate(-38.08 63.43) rotate(-18.41)"/><path class="cls-3" d="M357,285s-24.69-28.08-29.71-60.85c18.33-21.33,28.94-46.79,28.75-74.09C355.49,75.85,275.5,16.24,177.35,16.94S.09,78.39.62,152.62,81.14,286.47,179.28,285.77c38.22-.28,73.52-9.69,102.39-25.42C318.77,283.67,357,285,357,285Z"/><path class="cls-4" d="M342.77,273.31S320.47,247.2,316.28,217c17.11-19.36,27.18-42.6,27.35-67.67.48-68.19-72.21-124-162.36-124.59S17.68,78.92,17.2,147.1s72.22,124,162.36,124.59c35.1.25,67.65-7.94,94.37-22C307.7,271.57,342.77,273.31,342.77,273.31Z"/><path class="cls-4" d="M342.77,273.31S320.47,247.2,316.28,217c17.11-19.36,27.18-42.6,27.35-67.67.48-68.19-72.21-124-162.36-124.59S17.68,78.92,17.2,147.1s72.22,124,162.36,124.59c35.1.25,67.65-7.94,94.37-22C307.7,271.57,342.77,273.31,342.77,273.31Z"/><path class="cls-5" d="M329.44,149.29C337.6,98.63,263.5,36.11,181.2,35.54c-24.64-.18-54.94,4.71-68.44,12.05C67.55,72.16,324.1,182.45,329.44,149.29Z"/><path d="M71.7,30.89c2.28,0,.88,3,.59,4.13a38.92,38.92,0,0,0-1.1,5.55c-.06.61-.42,2.4.11,2.91.3.29,1.47.15,1.92.22a11.3,11.3,0,0,1,2.79.81A11.77,11.77,0,1,1,64.44,64.87C59,61,59,54.26,60.2,48.27a27.69,27.69,0,0,1,3.93-9.57,32.3,32.3,0,0,1,3.36-4.28C68.15,33.71,70.83,30.89,71.7,30.89Z"/><path d="M45.24,30.89c2.29,0,.88,3,.59,4.13a37.55,37.55,0,0,0-1.09,5.55c-.07.61-.42,2.4.11,2.91.29.29,1.46.15,1.91.22a11.3,11.3,0,0,1,2.79.81A11.77,11.77,0,1,1,38,64.87C32.5,61,32.5,54.26,33.74,48.27a27.9,27.9,0,0,1,3.94-9.57A31.49,31.49,0,0,1,41,34.42C41.69,33.71,44.38,30.89,45.24,30.89Z"/><path d="M312.05,236.71c-2.54,0-1-3.38-.66-4.6a41.82,41.82,0,0,0,1.22-6.17c.07-.68.47-2.67-.12-3.24-.33-.32-1.63-.16-2.13-.24a12.39,12.39,0,0,1-3.1-.9,13.09,13.09,0,1,1,12.86-22.65c6.1,4.32,6.1,11.8,4.72,18.47A30.93,30.93,0,0,1,320.46,228a35.8,35.8,0,0,1-3.73,4.77C316,233.57,313,236.71,312.05,236.71Z"/><path d="M341.47,236.71c-2.54,0-1-3.38-.65-4.6a41.79,41.79,0,0,0,1.21-6.17c.08-.68.47-2.67-.12-3.24-.33-.32-1.63-.16-2.13-.24a12.39,12.39,0,0,1-3.1-.9,13.09,13.09,0,1,1,12.86-22.65c6.1,4.32,6.1,11.8,4.72,18.47A30.91,30.91,0,0,1,349.89,228a35.87,35.87,0,0,1-3.74,4.77C345.42,233.57,342.44,236.71,341.47,236.71Z"/><path d="M65.28,120.7H57.54v-6.48H80.76v6.48H73v22.77H65.28Z"/><path d="M84.9,129.34V114.22h7.74v16c0,5.22,1.35,7.11,4.41,7.11s4.5-1.89,4.5-7.11v-16H109v15.12c0,10-3.78,14.67-12,14.67S84.9,139.33,84.9,129.34Z"/><path d="M123.06,128.71c0-9.63,5.49-15,13.59-15s13.59,5.44,13.59,15S144.75,144,136.65,144,123.06,138.34,123.06,128.71Zm19.26,0c0-5.31-2.16-8.37-5.67-8.37S131,123.4,131,128.71s2.16,8.64,5.67,8.64S142.32,134,142.32,128.71Z"/><path d="M155.46,114.22h10.71c6.39,0,11.88,2.34,11.88,9.72,0,7.15-5.58,10.26-11.7,10.26H163.2v9.27h-7.74ZM166,128.08c3.06,0,4.5-1.53,4.5-4.14s-1.71-3.6-4.68-3.6H163.2v7.74Z"/><path d="M182.82,114.22h7.74v29.25h-7.74Z"/><path d="M197,114.22H205l6.48,13,2.79,6.57h.18a105,105,0,0,1-1-11.16v-8.46h7.38v29.25h-7.92l-6.48-13.1-2.79-6.52h-.18a109.45,109.45,0,0,1,1,11.16v8.46H197Z"/><path d="M227.28,114.22H235v29.25h-7.74Z"/><path d="M240.24,128.71c0-9.63,5.49-15,13.59-15s13.59,5.44,13.59,15S261.93,144,253.83,144,240.24,138.34,240.24,128.71Zm19.26,0c0-5.31-2.16-8.37-5.67-8.37s-5.67,3.06-5.67,8.37,2.16,8.64,5.67,8.64S259.5,134,259.5,128.71Zm-9.45-19.44,8.19-6.48,4.05,4.95-8.82,5.4Z"/><path d="M272.64,114.22h7.91l6.49,13,2.78,6.57H290a105,105,0,0,1-1-11.16v-8.46h7.38v29.25h-7.92L282,130.37l-2.8-6.52H279c.35,3.33,1,7.56,1,11.16v8.46h-7.37Z"/><path d="M89,168.22h7.74v29.25H89Z"/><path d="M103.26,168.22h8.28l4.41,12c.54,1.62,1,3.42,1.53,5.13h.18c.54-1.71,1-3.51,1.53-5.13l4.23-12h8.28v29.25h-7v-8.64a101,101,0,0,1,1-10.44h-.18l-2.43,7-3.6,9.67h-4.14l-3.6-9.67-2.34-7h-.18a101,101,0,0,1,1,10.44v8.64h-6.93Z"/><path d="M138.18,168.22h10.71c6.39,0,11.88,2.34,11.88,9.72,0,7.15-5.58,10.26-11.7,10.26h-3.15v9.27h-7.74Zm10.53,13.86c3.06,0,4.5-1.53,4.5-4.14s-1.71-3.6-4.68-3.6h-2.61v7.74Z"/><path d="M164.28,182.71c0-9.63,5.49-15,13.59-15s13.59,5.44,13.59,15S186,198,177.87,198,164.28,192.34,164.28,182.71Zm19.26,0c0-5.31-2.16-8.37-5.67-8.37s-5.67,3.06-5.67,8.37,2.16,8.64,5.67,8.64S183.54,188,183.54,182.71Z"/><path d="M196.68,168.22h11.07c6.3,0,11.7,2.16,11.7,9.45,0,7.06-5.4,10-11.7,10h-3.33v9.81h-7.74Zm10.53,13.32c3.06,0,4.68-1.35,4.68-3.87s-1.62-3.33-4.68-3.33h-2.79v7.2Zm-.86,4.09,5.22-5.13,9.5,17h-8.64Z"/><path d="M229.71,174.7H222v-6.48h23.22v6.48h-7.74v22.77h-7.74Z"/><path d="M252.93,168.22h9.36l8.91,29.25H263l-3.33-14.22c-.72-2.79-1.44-6.35-2.16-9.27h-.18c-.63,3-1.35,6.48-2.07,9.27l-3.33,14.22H244Zm-2.52,17.05h14.31v6H250.41Z"/><path d="M64.33,121.51H56.6V115H79.81v6.48H72.08v22.77H64.33Z"/><path d="M84,130.15V115H91.7v16c0,5.22,1.34,7.11,4.4,7.11s4.5-1.89,4.5-7.11V115h7.47v15.12c0,10-3.78,14.67-12,14.67S84,140.14,84,130.15Z"/><path d="M122.11,129.52c0-9.63,5.49-15,13.59-15s13.59,5.45,13.59,15-5.49,15.3-13.59,15.3S122.11,139.15,122.11,129.52Zm19.26,0c0-5.31-2.16-8.37-5.67-8.37s-5.67,3.06-5.67,8.37,2.16,8.64,5.67,8.64S141.37,134.83,141.37,129.52Z"/><path d="M154.51,115h10.71c6.39,0,11.88,2.34,11.88,9.72,0,7.16-5.58,10.26-11.7,10.26h-3.15v9.27h-7.74ZM165,128.89c3.06,0,4.5-1.53,4.5-4.14s-1.71-3.6-4.68-3.6h-2.61v7.74Z"/><path d="M181.87,115h7.74v29.25h-7.74Z"/><path d="M196.09,115H204l6.48,13.05,2.79,6.57h.18a105,105,0,0,1-1-11.16V115h7.38v29.25h-7.92l-6.48-13.09-2.79-6.53h-.18a109.45,109.45,0,0,1,1,11.16v8.46h-7.38Z"/><path d="M226.33,115h7.74v29.25h-7.74Z"/><path d="M239.29,129.52c0-9.63,5.49-15,13.59-15s13.59,5.45,13.59,15-5.49,15.3-13.59,15.3S239.29,139.15,239.29,129.52Zm19.26,0c0-5.31-2.16-8.37-5.67-8.37s-5.67,3.06-5.67,8.37,2.16,8.64,5.67,8.64S258.55,134.83,258.55,129.52Zm-9.45-19.44,8.19-6.48,4,5-8.82,5.4Z"/><path d="M271.69,115h7.92l6.48,13.05,2.79,6.57h.18a105,105,0,0,1-1-11.16V115h7.38v29.25h-7.92l-6.48-13.09-2.79-6.53h-.18a109.45,109.45,0,0,1,1,11.16v8.46h-7.38Z"/><path d="M88.1,169h7.73v29.25H88.1Z"/><path d="M102.32,169h8.27L115,181c.54,1.62,1,3.42,1.53,5.13h.18c.54-1.71,1-3.51,1.53-5.13l4.23-12h8.28v29.25h-7v-8.64a101.29,101.29,0,0,1,1-10.44h-.18l-2.43,7-3.6,9.68h-4.14l-3.6-9.68-2.34-7h-.18a98.6,98.6,0,0,1,1,10.44v8.64h-6.93Z"/><path d="M137.23,169h10.71c6.39,0,11.88,2.34,11.88,9.72,0,7.16-5.58,10.26-11.7,10.26H145v9.27h-7.74Zm10.53,13.86c3.06,0,4.5-1.53,4.5-4.14s-1.71-3.6-4.68-3.6H145v7.74Z"/><path d="M163.33,183.52c0-9.63,5.49-15,13.59-15s13.59,5.45,13.59,15-5.49,15.3-13.59,15.3S163.33,193.15,163.33,183.52Zm19.26,0c0-5.31-2.16-8.37-5.67-8.37s-5.67,3.06-5.67,8.37,2.16,8.64,5.67,8.64S182.59,188.83,182.59,183.52Z"/><path d="M195.73,169H206.8c6.3,0,11.7,2.16,11.7,9.45,0,7.07-5.4,10-11.7,10h-3.33v9.81h-7.74Zm10.53,13.32c3.06,0,4.68-1.35,4.68-3.87s-1.62-3.33-4.68-3.33h-2.79v7.2Zm-.85,4.1,5.22-5.13,9.49,17h-8.64Z"/><path d="M228.76,175.51H221V169h23.22v6.48H236.5v22.77h-7.74Z"/><path d="M252,169h9.36l8.91,29.25h-8.19l-3.33-14.22c-.72-2.79-1.44-6.34-2.16-9.27h-.18c-.63,3-1.35,6.48-2.07,9.27L251,198.28h-7.92Zm-2.52,17.06h14.31v6H249.46Z"/><path class="cls-6" d="M60.94,121.15H53.2v-6.48H76.42v6.48H68.68v22.77H60.94Z"/><path class="cls-6" d="M80.56,129.79V114.67H88.3v16c0,5.22,1.35,7.11,4.41,7.11s4.5-1.89,4.5-7.11v-16h7.47v15.12c0,10-3.78,14.67-12,14.67S80.56,139.78,80.56,129.79Z"/><path class="cls-6" d="M118.72,129.16c0-9.63,5.49-15,13.59-15s13.59,5.44,13.59,15-5.49,15.3-13.59,15.3S118.72,138.79,118.72,129.16Zm19.26,0c0-5.31-2.16-8.37-5.67-8.37s-5.67,3.06-5.67,8.37,2.16,8.64,5.67,8.64S138,134.47,138,129.16Z"/><path class="cls-6" d="M151.12,114.67h10.71c6.39,0,11.87,2.34,11.87,9.72,0,7.15-5.58,10.26-11.69,10.26h-3.15v9.27h-7.74Zm10.53,13.86c3,0,4.49-1.53,4.49-4.14s-1.7-3.6-4.67-3.6h-2.61v7.74Z"/><path class="cls-6" d="M178.48,114.67h7.73v29.25h-7.73Z"/><path class="cls-6" d="M192.7,114.67h7.91l6.48,13,2.79,6.57h.18a105,105,0,0,1-1-11.16v-8.46h7.38v29.25h-7.92l-6.48-13.1-2.79-6.52h-.18a109.45,109.45,0,0,1,1,11.16v8.46H192.7Z"/><path class="cls-6" d="M222.94,114.67h7.73v29.25h-7.73Z"/><path class="cls-6" d="M235.89,129.16c0-9.63,5.49-15,13.59-15s13.59,5.44,13.59,15-5.49,15.3-13.59,15.3S235.89,138.79,235.89,129.16Zm19.26,0c0-5.31-2.16-8.37-5.67-8.37s-5.67,3.06-5.67,8.37,2.16,8.64,5.67,8.64S255.15,134.47,255.15,129.16Zm-9.45-19.44,8.19-6.48,4.05,5-8.82,5.4Z"/><path class="cls-6" d="M268.29,114.67h7.92l6.48,13,2.79,6.57h.18a105,105,0,0,1-1-11.16v-8.46h7.38v29.25h-7.92l-6.48-13.1-2.79-6.52h-.18a109.45,109.45,0,0,1,1,11.16v8.46h-7.38Z"/><path class="cls-6" d="M84.7,168.67h7.74v29.25H84.7Z"/><path class="cls-6" d="M98.92,168.67h8.28l4.41,12c.54,1.62,1,3.42,1.53,5.13h.18c.54-1.71,1-3.51,1.53-5.13l4.23-12h8.27v29.25h-7v-8.64a101,101,0,0,1,1-10.44h-.19l-2.42,7-3.6,9.67H111l-3.6-9.67-2.34-7h-.18a101,101,0,0,1,1,10.44v8.64H98.92Z"/><path class="cls-6" d="M133.84,168.67h10.7c6.39,0,11.88,2.34,11.88,9.72,0,7.15-5.58,10.26-11.69,10.26h-3.15v9.27h-7.74Zm10.53,13.86c3,0,4.49-1.53,4.49-4.14s-1.7-3.6-4.68-3.6h-2.6v7.74Z"/><path class="cls-6" d="M159.93,183.16c0-9.63,5.49-15,13.59-15s13.59,5.44,13.59,15-5.49,15.3-13.59,15.3S159.93,192.79,159.93,183.16Zm19.26,0c0-5.31-2.16-8.37-5.67-8.37s-5.67,3.06-5.67,8.37,2.16,8.64,5.67,8.64S179.19,188.47,179.19,183.16Z"/><path class="cls-6" d="M192.33,168.67H203.4c6.3,0,11.7,2.16,11.7,9.45,0,7.06-5.4,10-11.7,10h-3.33v9.81h-7.74ZM202.86,182c3.06,0,4.68-1.35,4.68-3.87s-1.62-3.33-4.68-3.33h-2.79V182Zm-.85,4.09,5.22-5.13,9.49,17h-8.64Z"/><path class="cls-6" d="M225.36,175.15h-7.74v-6.48h23.22v6.48H233.1v22.77h-7.74Z"/><path class="cls-6" d="M248.58,168.67h9.36l8.91,29.25h-8.19l-3.33-14.22c-.72-2.79-1.44-6.35-2.16-9.27H253c-.63,3-1.35,6.48-2.07,9.27l-3.33,14.22h-7.92Zm-2.52,17.05h14.31v6H246.06Z"/></g></g></svg>