<svg xmlns="http://www.w3.org/2000/svg" viewBox="0 0 356.98 300"><defs><style>.cls-1{fill:#0076aa;}.cls-2{fill:#00bebb;}.cls-3{fill:#a5e138;}.cls-4{fill:#bfee14;}.cls-5{fill:#cdff00;opacity:0.5;}.cls-6{fill:#fff;}</style></defs><g id="Capa_2" data-name="Capa 2"><g id="Layer_1" data-name="Layer 1"><ellipse class="cls-1" cx="178.82" cy="150" rx="176.49" ry="132.92" transform="translate(-54.21 136.91) rotate(-36.78)"/><ellipse class="cls-2" cx="176.67" cy="149.19" rx="180.58" ry="135.83" transform="translate(-38.08 63.43) rotate(-18.41)"/><path class="cls-3" d="M357,285s-24.69-28.08-29.71-60.85c18.33-21.33,28.94-46.79,28.75-74.09C355.49,75.85,275.5,16.24,177.35,16.94S.09,78.39.62,152.62,81.14,286.47,179.28,285.77c38.22-.28,73.52-9.69,102.39-25.42C318.77,283.67,357,285,357,285Z"/><path class="cls-4" d="M342.77,273.31S320.47,247.2,316.28,217c17.11-19.36,27.18-42.6,27.35-67.67.48-68.19-72.21-124-162.36-124.59S17.68,78.92,17.2,147.1s72.22,124,162.36,124.59c35.1.25,67.65-7.94,94.37-22C307.7,271.57,342.77,273.31,342.77,273.31Z"/><path class="cls-4" d="M342.77,273.31S320.47,247.2,316.28,217c17.11-19.36,27.18-42.6,27.35-67.67.48-68.19-72.21-124-162.36-124.59S17.68,78.92,17.2,147.1s72.22,124,162.36,124.59c35.1.25,67.65-7.94,94.37-22C307.7,271.57,342.77,273.31,342.77,273.31Z"/><path class="cls-5" d="M329.44,149.29C337.6,98.63,263.5,36.11,181.2,35.54c-24.64-.18-54.94,4.71-68.44,12.05C67.55,72.16,324.1,182.45,329.44,149.29Z"/><path d="M71.7,30.89c2.28,0,.88,3,.59,4.13a38.92,38.92,0,0,0-1.1,5.55c-.06.61-.42,2.4.11,2.91.3.29,1.47.15,1.92.22a11.3,11.3,0,0,1,2.79.81A11.77,11.77,0,1,1,64.44,64.87C59,61,59,54.26,60.2,48.27a27.69,27.69,0,0,1,3.93-9.57,32.3,32.3,0,0,1,3.36-4.28C68.15,33.71,70.83,30.89,71.7,30.89Z"/><path d="M45.24,30.89c2.29,0,.88,3,.59,4.13a37.55,37.55,0,0,0-1.09,5.55c-.07.61-.42,2.4.11,2.91.29.29,1.46.15,1.91.22a11.3,11.3,0,0,1,2.79.81A11.77,11.77,0,1,1,38,64.87C32.5,61,32.5,54.26,33.74,48.27a27.9,27.9,0,0,1,3.94-9.57A31.49,31.49,0,0,1,41,34.42C41.69,33.71,44.38,30.89,45.24,30.89Z"/><path d="M312.05,236.71c-2.54,0-1-3.38-.66-4.6a41.82,41.82,0,0,0,1.22-6.17c.07-.68.47-2.67-.12-3.24-.33-.32-1.63-.16-2.13-.24a12.39,12.39,0,0,1-3.1-.9,13.09,13.09,0,1,1,12.86-22.65c6.1,4.32,6.1,11.8,4.72,18.47A30.93,30.93,0,0,1,320.46,228a35.8,35.8,0,0,1-3.73,4.77C316,233.57,313,236.71,312.05,236.71Z"/><path d="M341.47,236.71c-2.54,0-1-3.38-.65-4.6a41.79,41.79,0,0,0,1.21-6.17c.08-.68.47-2.67-.12-3.24-.33-.32-1.63-.16-2.13-.24a12.39,12.39,0,0,1-3.1-.9,13.09,13.09,0,1,1,12.86-22.65c6.1,4.32,6.1,11.8,4.72,18.47A30.91,30.91,0,0,1,349.89,228a35.87,35.87,0,0,1-3.74,4.77C345.42,233.57,342.44,236.71,341.47,236.71Z"/><path d="M36,133.39l-8.82-19.17h8.28l2.16,6.12c.72,2.2,1.44,4.23,2.21,6.52H40c.76-2.29,1.53-4.32,2.29-6.52l2.16-6.12h8.1l-8.82,19.17v10.08H36Z"/><path d="M53.18,128.71c0-9.63,5.48-15,13.59-15s13.58,5.44,13.58,15S74.86,144,66.77,144,53.18,138.34,53.18,128.71Zm19.25,0c0-5.31-2.16-8.37-5.66-8.37s-5.67,3.06-5.67,8.37,2.15,8.64,5.67,8.64S72.43,134,72.43,128.71Z"/><path d="M85.39,129.34V114.22h7.74v16c0,5.22,1.35,7.11,4.41,7.11s4.5-1.89,4.5-7.11v-16h7.47v15.12c0,10-3.78,14.67-12,14.67S85.39,139.33,85.39,129.34Z"/><path d="M115.81,114.22h11.07c6.3,0,11.7,2.16,11.7,9.45,0,7.06-5.4,10-11.7,10h-3.33v9.81h-7.74Zm10.53,13.32c3.06,0,4.68-1.35,4.68-3.87s-1.62-3.33-4.68-3.33h-2.79v7.2Zm-.85,4.09,5.22-5.13,9.49,17h-8.64Z"/><path d="M151.9,128.71c0-9.63,5.49-15,13.59-15s13.59,5.44,13.59,15S173.59,144,165.49,144,151.9,138.34,151.9,128.71Zm19.26,0c0-5.31-2.16-8.37-5.67-8.37s-5.67,3.06-5.67,8.37,2.16,8.64,5.67,8.64S171.16,134,171.16,128.71Z"/><path d="M184.3,114.22H195c6.39,0,11.88,2.34,11.88,9.72,0,7.15-5.58,10.26-11.7,10.26H192v9.27H184.3Zm10.53,13.86c3.06,0,4.5-1.53,4.5-4.14s-1.71-3.6-4.68-3.6H192v7.74Z"/><path d="M211.66,114.22h7.74v29.25h-7.74Z"/><path d="M225.88,114.22h7.92l6.48,13,2.79,6.57h.18a105,105,0,0,1-1-11.16v-8.46h7.38v29.25h-7.92l-6.48-13.1-2.79-6.52h-.18a109.45,109.45,0,0,1,1,11.16v8.46h-7.38Z"/><path d="M256.12,114.22h7.74v29.25h-7.74Z"/><path d="M269.08,128.71c0-9.63,5.49-15,13.59-15s13.59,5.44,13.59,15S290.77,144,282.67,144,269.08,138.34,269.08,128.71Zm19.26,0c0-5.31-2.16-8.37-5.67-8.37S277,123.4,277,128.71s2.16,8.64,5.67,8.64S288.34,134,288.34,128.71Z"/><path d="M301.48,114.22h7.92l6.48,13,2.79,6.57h.18a105,105,0,0,1-1-11.16v-8.46h7.38v29.25h-7.92l-6.48-13.1-2.79-6.52h-.18a109.45,109.45,0,0,1,1,11.16v8.46h-7.38Z"/><path d="M88.05,168.22h8.28l4.41,12c.54,1.62,1,3.42,1.53,5.13h.18c.54-1.71,1-3.51,1.53-5.13l4.23-12h8.28v29.25h-7v-8.64a101,101,0,0,1,1-10.44h-.18l-2.43,7-3.6,9.67h-4.14l-3.6-9.67-2.34-7H94a101,101,0,0,1,1,10.44v8.64H88.05Z"/><path d="M128.19,168.22h9.36l8.91,29.25h-8.19l-3.33-14.22c-.72-2.79-1.44-6.35-2.16-9.27h-.18c-.63,3-1.35,6.48-2.07,9.27l-3.33,14.22h-7.92Zm-2.52,17.05H140v6H125.67Z"/><path d="M151.23,174.7h-7.74v-6.48h23.22v6.48H159v22.77h-7.74Z"/><path d="M176.61,174.7h-7.74v-6.48h23.22v6.48h-7.74v22.77h-7.74Z"/><path d="M196.41,168.22h18.9v6.48H204.15v4.59h9.54v6.48h-9.54V191h11.61v6.48H196.41Z"/><path d="M221.43,168.22H232.5c6.3,0,11.7,2.16,11.7,9.45,0,7.06-5.4,10-11.7,10h-3.33v9.81h-7.74ZM232,181.54c3.06,0,4.68-1.35,4.68-3.87s-1.62-3.33-4.68-3.33h-2.79v7.2Zm-.86,4.09,5.22-5.13,9.5,17h-8.64Z"/><path d="M247.35,193.82l4.41-5.31a11.86,11.86,0,0,0,6.84,2.84c2.34,0,3.33-.77,3.33-2.07s-1.49-1.85-4-2.84l-3.65-1.53c-3.15-1.26-5.89-3.91-5.89-8.14,0-5,4.5-9.09,10.89-9.09a14.08,14.08,0,0,1,9.72,3.91l-3.87,4.86a9.66,9.66,0,0,0-5.85-2.11c-1.89,0-3.06.67-3.06,2s1.66,1.89,4.32,2.92l3.55,1.4c3.65,1.44,5.72,4,5.72,8,0,4.95-4.14,9.36-11.43,9.36A16.92,16.92,0,0,1,247.35,193.82Z"/><path d="M35,134.2,26.22,115H34.5l2.16,6.12c.72,2.21,1.44,4.23,2.21,6.53h.18c.76-2.3,1.53-4.32,2.29-6.53L43.5,115h8.1L42.78,134.2v10.08H35Z"/><path d="M52.23,129.52c0-9.63,5.49-15,13.59-15s13.59,5.45,13.59,15-5.49,15.3-13.59,15.3S52.23,139.15,52.23,129.52Zm19.26,0c0-5.31-2.16-8.37-5.67-8.37s-5.67,3.06-5.67,8.37,2.16,8.64,5.67,8.64S71.49,134.83,71.49,129.52Z"/><path d="M84.45,130.15V115h7.74v16c0,5.22,1.35,7.11,4.41,7.11s4.5-1.89,4.5-7.11V115h7.47v15.12c0,10-3.78,14.67-12,14.67S84.45,140.14,84.45,130.15Z"/><path d="M114.87,115h11.07c6.3,0,11.7,2.16,11.7,9.45,0,7.07-5.4,10-11.7,10h-3.33v9.81h-7.74Zm10.53,13.32c3.06,0,4.68-1.35,4.68-3.87s-1.62-3.33-4.68-3.33h-2.79v7.2Zm-.86,4.1,5.22-5.13,9.5,17h-8.64Z"/><path d="M151,129.52c0-9.63,5.49-15,13.59-15s13.59,5.45,13.59,15-5.49,15.3-13.59,15.3S151,139.15,151,129.52Zm19.26,0c0-5.31-2.16-8.37-5.67-8.37s-5.67,3.06-5.67,8.37,2.16,8.64,5.67,8.64S170.22,134.83,170.22,129.52Z"/><path d="M183.36,115h10.71c6.39,0,11.88,2.34,11.88,9.72,0,7.16-5.58,10.26-11.7,10.26H191.1v9.27h-7.74Zm10.53,13.86c3.06,0,4.5-1.53,4.5-4.14s-1.71-3.6-4.68-3.6H191.1v7.74Z"/><path d="M210.72,115h7.74v29.25h-7.74Z"/><path d="M224.94,115h7.92l6.48,13.05,2.79,6.57h.18a105,105,0,0,1-1-11.16V115h7.38v29.25h-7.92l-6.48-13.09-2.79-6.53h-.18a109.45,109.45,0,0,1,1,11.16v8.46h-7.38Z"/><path d="M255.18,115h7.74v29.25h-7.74Z"/><path d="M268.14,129.52c0-9.63,5.49-15,13.59-15s13.59,5.45,13.59,15-5.49,15.3-13.59,15.3S268.14,139.15,268.14,129.52Zm19.26,0c0-5.31-2.16-8.37-5.67-8.37s-5.67,3.06-5.67,8.37,2.16,8.64,5.67,8.64S287.4,134.83,287.4,129.52Z"/><path d="M300.54,115h7.92l6.48,13.05,2.79,6.57h.18a105,105,0,0,1-1-11.16V115h7.38v29.25h-7.92l-6.48-13.09-2.79-6.53h-.18a109.45,109.45,0,0,1,1,11.16v8.46h-7.38Z"/><path d="M87.11,169h8.27l4.41,12c.54,1.62,1,3.42,1.53,5.13h.18c.54-1.71,1-3.51,1.53-5.13l4.23-12h8.28v29.25h-7v-8.64a101.29,101.29,0,0,1,1-10.44h-.18l-2.43,7-3.6,9.68H99.16l-3.6-9.68-2.34-7H93a98.6,98.6,0,0,1,1,10.44v8.64H87.11Z"/><path d="M127.24,169h9.36l8.91,29.25h-8.19L134,184.06c-.72-2.79-1.44-6.34-2.16-9.27h-.18c-.63,3-1.35,6.48-2.07,9.27l-3.33,14.22h-7.92Zm-2.52,17.06H139v6H124.72Z"/><path d="M150.28,175.51h-7.74V169h23.22v6.48H158v22.77h-7.74Z"/><path d="M175.66,175.51h-7.74V169h23.22v6.48H183.4v22.77h-7.74Z"/><path d="M195.46,169h18.9v6.48H203.2v4.59h9.54v6.48H203.2v5.22h11.61v6.48H195.46Z"/><path d="M220.49,169h11.06c6.3,0,11.7,2.16,11.7,9.45,0,7.07-5.4,10-11.7,10h-3.33v9.81h-7.73ZM231,182.35c3.06,0,4.68-1.35,4.68-3.87s-1.62-3.33-4.68-3.33h-2.79v7.2Zm-.85,4.1,5.22-5.13,9.49,17h-8.64Z"/><path d="M246.41,194.64l4.4-5.31a11.91,11.91,0,0,0,6.84,2.83c2.34,0,3.33-.76,3.33-2.07s-1.48-1.84-4-2.83l-3.64-1.53c-3.15-1.26-5.9-3.92-5.9-8.15,0-5,4.5-9.09,10.89-9.09a14,14,0,0,1,9.72,3.92l-3.87,4.86a9.61,9.61,0,0,0-5.85-2.12c-1.89,0-3.06.68-3.06,2s1.67,1.89,4.32,2.93l3.56,1.39c3.64,1.44,5.71,4,5.71,8,0,4.95-4.14,9.36-11.43,9.36A16.92,16.92,0,0,1,246.41,194.64Z"/><path class="cls-6" d="M37.86,133.84,29,114.67h8.28l2.16,6.12c.72,2.2,1.44,4.23,2.2,6.52h.18c.77-2.29,1.53-4.32,2.3-6.52l2.16-6.12h8.1L45.6,133.84v10.08H37.86Z"/><path class="cls-6" d="M55.05,129.16c0-9.63,5.49-15,13.59-15s13.59,5.44,13.59,15-5.49,15.3-13.59,15.3S55.05,138.79,55.05,129.16Zm19.26,0c0-5.31-2.16-8.37-5.67-8.37S63,123.85,63,129.16s2.16,8.64,5.67,8.64S74.31,134.47,74.31,129.16Z"/><path class="cls-6" d="M87.27,129.79V114.67H95v16c0,5.22,1.35,7.11,4.41,7.11s4.5-1.89,4.5-7.11v-16h7.47v15.12c0,10-3.78,14.67-12,14.67S87.27,139.78,87.27,129.79Z"/><path class="cls-6" d="M117.69,114.67h11.07c6.3,0,11.7,2.16,11.7,9.45,0,7.06-5.4,10-11.7,10h-3.33v9.81h-7.74ZM128.22,128c3.06,0,4.68-1.35,4.68-3.87s-1.62-3.33-4.68-3.33h-2.79V128Zm-.86,4.09,5.22-5.13,9.5,17h-8.64Z"/><path class="cls-6" d="M153.78,129.16c0-9.63,5.49-15,13.59-15s13.58,5.44,13.58,15-5.49,15.3-13.58,15.3S153.78,138.79,153.78,129.16Zm19.26,0c0-5.31-2.17-8.37-5.67-8.37s-5.67,3.06-5.67,8.37,2.16,8.64,5.67,8.64S173,134.47,173,129.16Z"/><path class="cls-6" d="M186.18,114.67h10.7c6.39,0,11.88,2.34,11.88,9.72,0,7.15-5.58,10.26-11.69,10.26h-3.16v9.27h-7.73Zm10.52,13.86c3.06,0,4.5-1.53,4.5-4.14s-1.7-3.6-4.67-3.6h-2.62v7.74Z"/><path class="cls-6" d="M213.54,114.67h7.73v29.25h-7.73Z"/><path class="cls-6" d="M227.75,114.67h7.92l6.48,13,2.79,6.57h.18a105,105,0,0,1-1-11.16v-8.46h7.38v29.25h-7.92l-6.48-13.1-2.79-6.52h-.18a109.45,109.45,0,0,1,1,11.16v8.46h-7.38Z"/><path class="cls-6" d="M258,114.67h7.73v29.25H258Z"/><path class="cls-6" d="M271,129.16c0-9.63,5.49-15,13.59-15s13.59,5.44,13.59,15-5.49,15.3-13.59,15.3S271,138.79,271,129.16Zm19.26,0c0-5.31-2.16-8.37-5.67-8.37s-5.67,3.06-5.67,8.37,2.16,8.64,5.67,8.64S290.21,134.47,290.21,129.16Z"/><path class="cls-6" d="M303.35,114.67h7.92l6.48,13,2.79,6.57h.18a105,105,0,0,1-1-11.16v-8.46h7.38v29.25h-7.92l-6.48-13.1-2.79-6.52h-.18a109.45,109.45,0,0,1,1,11.16v8.46h-7.38Z"/><path class="cls-6" d="M89.92,168.67H98.2l4.41,12c.54,1.62,1,3.42,1.53,5.13h.18c.54-1.71,1-3.51,1.53-5.13l4.23-12h8.28v29.25h-7v-8.64a101,101,0,0,1,1-10.44h-.18l-2.43,7-3.6,9.67H102l-3.6-9.67-2.34-7h-.18a101,101,0,0,1,1,10.44v8.64H89.92Z"/><path class="cls-6" d="M130.06,168.67h9.36l8.91,29.25h-8.19l-3.33-14.22c-.72-2.79-1.44-6.35-2.16-9.27h-.18c-.63,3-1.35,6.48-2.07,9.27l-3.33,14.22h-7.92Zm-2.52,17.05h14.31v6H127.54Z"/><path class="cls-6" d="M153.1,175.15h-7.74v-6.48h23.22v6.48h-7.74v22.77H153.1Z"/><path class="cls-6" d="M178.48,175.15h-7.74v-6.48H194v6.48h-7.74v22.77h-7.74Z"/><path class="cls-6" d="M198.28,168.67h18.9v6.48H206v4.59h9.54v6.48H206v5.22h11.61v6.48H198.28Z"/><path class="cls-6" d="M223.3,168.67h11.07c6.3,0,11.7,2.16,11.7,9.45,0,7.06-5.4,10-11.7,10H231v9.81H223.3ZM233.83,182c3.06,0,4.68-1.35,4.68-3.87s-1.62-3.33-4.68-3.33H231V182Zm-.86,4.09,5.22-5.13,9.5,17h-8.64Z"/><path class="cls-6" d="M249.22,194.27l4.41-5.31a11.86,11.86,0,0,0,6.84,2.84c2.34,0,3.33-.77,3.33-2.07s-1.49-1.85-4-2.84l-3.64-1.53c-3.16-1.26-5.9-3.91-5.9-8.14,0-5,4.5-9.09,10.89-9.09a14.08,14.08,0,0,1,9.72,3.91L267,176.9a9.66,9.66,0,0,0-5.85-2.11c-1.89,0-3.06.67-3.06,2s1.66,1.89,4.32,2.92l3.55,1.4c3.65,1.44,5.72,4,5.72,8,0,5-4.14,9.36-11.43,9.36A16.92,16.92,0,0,1,249.22,194.27Z"/></g></g></svg>